<svg xmlns="http://www.w3.org/2000/svg" xmlns:xlink="http://www.w3.org/1999/xlink" viewBox="0 0 1049.93 418.37"><defs><style>.cls-1{fill:url(#linear-gradient);}.cls-2{fill:#05409e;}.cls-3{fill:url(#linear-gradient-2);}.cls-4{fill:url(#linear-gradient-3);}</style><linearGradient id="linear-gradient" x1="713.13" y1="144.37" x2="713.13" y2="85.04" gradientUnits="userSpaceOnUse"><stop offset="0" stop-color="#f15a29"/><stop offset="1" stop-color="#f7941d"/></linearGradient><linearGradient id="linear-gradient-2" x1="442.76" y1="150.31" x2="299.95" y2="150.31" xlink:href="#linear-gradient"/><linearGradient id="linear-gradient-3" x1="196.04" y1="271.51" x2="250.94" y2="172.69" gradientUnits="userSpaceOnUse"><stop offset="0" stop-color="#0962cc"/><stop offset="1" stop-color="#05409e"/></linearGradient></defs><g id="Layer_2" data-name="Layer 2"><g id="Layer_1-2" data-name="Layer 1"><path class="cls-1" d="M726.24,86.51H700a7.45,7.45,0,0,0-6.43,3.71l-13.1,22.71a7.4,7.4,0,0,0,0,7.42l13.1,22.7a7.42,7.42,0,0,0,6.43,3.71h26.22a7.42,7.42,0,0,0,6.43-3.71l13.1-22.7a7.4,7.4,0,0,0,0-7.42l-13.1-22.71A7.45,7.45,0,0,0,726.24,86.51Z"/><path class="cls-2" d="M628,305.18V230.86c0-17.9-8.79-29.72-25.68-29.72S577,213,577,230.86v74.32c0,15.53-10.14,25-23.65,25-13.85,0-23.64-9.46-23.64-25V121.42c0-15.54,9.79-25,23.64-25,13.51,0,23.65,9.46,23.65,25V178.5h.34c7.77-9.12,21.28-17.56,42.22-17.56,36.14,0,55.74,25.33,55.74,60.8v83.44c0,15.53-9.8,25-23.65,25C638.16,330.17,628,320.71,628,305.18Z"/><path class="cls-2" d="M689.5,305.18V187.62c0-15.53,9.8-25,23.65-25,13.51,0,23.65,9.46,23.65,25V305.18c0,15.53-10.14,25-23.65,25C699.3,330.17,689.5,320.71,689.5,305.18Z"/><path class="cls-2" d="M792.19,301.12,750,196.07a27.58,27.58,0,0,1-2.37-11.15c0-12.83,10.14-22.29,23.31-22.29,10.81,0,17.9,5.74,22,16.55l31.41,85.46H825L855,179.18c3.72-10.81,11.15-16.55,21.62-16.55,13.17,0,23,9.46,23,22.29a27.73,27.73,0,0,1-2.36,11.15L855,301.12c-8.78,21.62-15.88,29.05-31.41,29.05S801,322.74,792.19,301.12Z"/><path class="cls-2" d="M903.67,285.25c-3.38-10.14-5.41-22-5.41-38.85,0-17.23,1.69-29.05,5.07-39.18,9.8-29.73,35.81-46.28,70.6-46.28,36.14,0,61.14,16.89,70.6,45.94,3.71,11.48,5.4,23,5.4,38.17,0,9.12-5.74,15.54-15.54,15.54H947.58a1.79,1.79,0,0,0-2,2,29.4,29.4,0,0,0,1.69,9.46c4.39,13.85,16.89,21.28,33.78,21.28,11.15,0,22-3.71,30.74-8.44,5.74-3.38,11.48-5.07,16.21-5.07,9.8,0,17.23,7.43,17.23,17.57,0,7.09-3.38,12.83-9.46,16.89-15.54,10.81-33.78,17.56-59.11,17.56C938.8,331.86,913.13,314.63,903.67,285.25Zm97.62-56.08a1.79,1.79,0,0,0,2-2,38.94,38.94,0,0,0-1.69-12.16c-3.72-11.49-13.85-17.91-27.36-17.91S951,203.5,947.24,215a38.94,38.94,0,0,0-1.69,12.16,1.79,1.79,0,0,0,2,2Z"/><path class="cls-3" d="M453.37,174.86l-36.73-63.8c-8.28-13.24-22.13-17.89-34.13,1-20.32,32-43.46,43.72-77.12,43.72H195.76a21,21,0,0,1,0-42.06h66.09c5.49,0,8.69-4.78,8.69-9.78,0-4.74-5-9.78-8.69-9.78H184c-15.16,0-19,1.62-32.15,24.36l-.08.12-16.26,29.51a20.83,20.83,0,1,1-35.9-21.12l17.32-30.55C131,72.27,142,52.33,181.44,52.33H308.79A26.19,26.19,0,0,0,310,0H151.37a71.55,71.55,0,0,0-62,35.68S59,85.48,40.1,120,20.51,208,97,208h268.9c76.63,0,75.69,56,56.8,90.49-.38.7-.74,1.42-1.13,2.13l31.74-54.23A71.57,71.57,0,0,0,453.37,174.86Z"/><path class="cls-4" d="M365.93,208H97c-76.46,0-75.76-53.41-57-87.93h0L9.63,172a71.5,71.5,0,0,0-.09,71.52l36.85,64c8.3,13,22,17.5,34-1.29,20.31-32,43.45-43.72,77.11-43.72H267.11a21,21,0,0,1,0,42.05H201c-5.49,0-8.69,4.78-8.69,9.78,0,4.75,5,9.79,8.69,9.79h77.89c15.16,0,19-1.62,32.16-24.36l.07-.13,16.26-29.5a20.83,20.83,0,1,1,35.91,21.12l-17.33,30.55c-14,24.24-25.09,44.17-64.51,44.17H154.08a26.19,26.19,0,0,0,.19,52.38H311.54a71.52,71.52,0,0,0,62-35.68s29.12-47.7,48.06-82.1c.39-.7.78-1.4,1.16-2.1C441.63,264,442.56,208,365.93,208Z"/></g></g></svg>