<svg xmlns="http://www.w3.org/2000/svg" xmlns:xlink="http://www.w3.org/1999/xlink" width="318.001" height="134.597" viewBox="0 0 318.001 134.597"><defs><style>.a{fill:url(#a);}.b{fill:#0c3e9e;}.c{fill:none;stroke:#f0f;stroke-linecap:round;stroke-linejoin:round;stroke-width:29.498px;}.d{fill:url(#b);}.e{fill:url(#c);}</style><linearGradient id="a" x1="0.5" y1="0.96" x2="0.5" y2="-0.024" gradientUnits="objectBoundingBox"><stop offset="0" stop-color="#f15a29"/><stop offset="0.997" stop-color="#f7941d"/></linearGradient><linearGradient id="b" x1="0.954" y1="0.5" x2="0.624" y2="0.5" xlink:href="#a"/><linearGradient id="c" x1="0.452" y1="0.508" x2="0.579" y2="0.176" gradientUnits="objectBoundingBox"><stop offset="0" stop-color="#0962cc"/><stop offset="1" stop-color="#05409e"/></linearGradient></defs><g transform="translate(13921 -15931)"><g transform="translate(-13921 15931)"><g transform="translate(160.443 26.202)"><path class="a" d="M1128.685,446.263h-7.94a2.249,2.249,0,0,0-1.947,1.124l-3.97,6.876a2.248,2.248,0,0,0,0,2.248l3.97,6.876a2.249,2.249,0,0,0,1.947,1.124h7.94a2.248,2.248,0,0,0,1.947-1.124l3.97-6.876a2.248,2.248,0,0,0,0-2.248l-3.97-6.876A2.248,2.248,0,0,0,1128.685,446.263Z" transform="translate(-1069.166 -446.263)"/><path class="b" d="M994.534,519.4V496.892c0-5.422-2.66-9-7.776-9s-7.673,3.581-7.673,9V519.4c0,4.706-3.069,7.571-7.162,7.571-4.195,0-7.162-2.865-7.162-7.571V463.744c0-4.706,2.967-7.571,7.162-7.571,4.093,0,7.162,2.865,7.162,7.571v17.29h.1c2.353-2.763,6.445-5.32,12.789-5.32,10.947,0,16.881,7.674,16.881,18.416V519.4c0,4.706-2.967,7.571-7.162,7.571C997.6,526.971,994.534,524.106,994.534,519.4Z" transform="translate(-964.762 -453.171)"/><path class="b" d="M1124.539,565.555v-35.6c0-4.706,2.967-7.571,7.161-7.571,4.093,0,7.162,2.865,7.162,7.571v35.6c0,4.706-3.069,7.571-7.162,7.571C1127.506,573.126,1124.539,570.261,1124.539,565.555Z" transform="translate(-1076.146 -499.326)"/><path class="b" d="M1196.142,564.327l-12.789-31.819a8.357,8.357,0,0,1-.716-3.376,6.757,6.757,0,0,1,7.059-6.753c3.274,0,5.422,1.739,6.65,5.013l9.515,25.884h.2l9.105-25.884c1.125-3.274,3.376-5.013,6.548-5.013a6.67,6.67,0,0,1,6.957,6.753,8.361,8.361,0,0,1-.716,3.376l-12.789,31.819c-2.659,6.548-4.808,8.8-9.515,8.8S1198.8,570.875,1196.142,564.327Z" transform="translate(-1116.647 -499.326)"/><path class="b" d="M1334.934,558.341a36.054,36.054,0,0,1-1.637-11.766,36.662,36.662,0,0,1,1.535-11.868c2.967-9,10.845-14.017,21.383-14.017,10.947,0,18.518,5.116,21.382,13.914a35.83,35.83,0,0,1,1.637,11.561,4.4,4.4,0,0,1-4.706,4.706h-26.294a.543.543,0,0,0-.614.614,8.871,8.871,0,0,0,.512,2.865c1.33,4.195,5.115,6.445,10.231,6.445a20.067,20.067,0,0,0,9.31-2.557,10.063,10.063,0,0,1,4.911-1.535,5.137,5.137,0,0,1,5.218,5.32,5.956,5.956,0,0,1-2.865,5.115c-4.706,3.274-10.231,5.32-17.9,5.32C1345.574,572.46,1337.8,567.242,1334.934,558.341Zm29.568-16.984a.543.543,0,0,0,.614-.614,11.778,11.778,0,0,0-.511-3.683c-1.125-3.479-4.195-5.422-8.287-5.422s-7.059,1.944-8.185,5.422a11.777,11.777,0,0,0-.512,3.683.543.543,0,0,0,.614.614Z" transform="translate(-1221.676 -498.148)"/><path class="c" d="M1447.85,655.918" transform="translate(-1301.533 -592.418)"/></g><g transform="translate(0 0)"><g transform="translate(8.939 0)"><path class="d" d="M592.923,412.714,581.8,393.391c-2.508-4.011-6.7-5.421-10.338.311-6.152,9.7-13.163,13.242-23.356,13.242H514.9a6.369,6.369,0,0,1,.012-12.738h20.018a2.749,2.749,0,0,0,2.632-2.962,3.248,3.248,0,0,0-2.632-2.963H511.339c-4.592,0-5.752.49-9.74,7.378l-.022.038-4.925,8.938a6.309,6.309,0,0,1-10.876-6.4l5.247-9.252c4.251-7.342,7.6-13.38,19.539-13.38h38.572a7.932,7.932,0,0,0,.369-15.851H501.454A21.663,21.663,0,0,0,482.68,370.56s-9.2,15.082-14.925,25.536c-5.685,10.457-5.935,26.654,17.223,26.654h81.443c23.209,0,22.926,16.954,17.2,27.409-.115.211-.223.43-.341.644l9.611-16.426A21.662,21.662,0,0,0,592.923,412.714Z" transform="translate(-464.547 -359.752)"/></g><g transform="translate(0 36.366)"><path class="e" d="M545.868,506.452H464.425c-23.158,0-22.944-16.175-17.258-26.632h0l-9.216,15.725a21.663,21.663,0,0,0-.027,21.663l11.163,19.39c2.513,3.949,6.678,5.3,10.29-.391,6.152-9.7,13.163-13.242,23.356-13.242h33.205a6.369,6.369,0,0,1-.012,12.738H495.907a2.75,2.75,0,0,0-2.632,2.963,3.248,3.248,0,0,0,2.632,2.963H519.5c4.592,0,5.752-.49,9.74-7.378l.022-.037,4.925-8.937a6.309,6.309,0,0,1,10.876,6.4l-5.247,9.252c-4.251,7.342-7.6,13.38-19.539,13.38H481.7a7.931,7.931,0,0,0,.058,15.863h47.632a21.664,21.664,0,0,0,18.774-10.808s8.818-14.447,14.557-24.865l.35-.637C568.795,523.406,569.078,506.452,545.868,506.452Z" transform="translate(-435.035 -479.82)"/></g></g></g><path class="b" d="M7.448-2.187A2.965,2.965,0,0,1,6.351.286a4.969,4.969,0,0,1-3.139.865H1.967V5.314H.736V-5.272H3.48Q7.448-5.272,7.448-2.187ZM1.967.094H3.075A4.117,4.117,0,0,0,5.443-.435a1.948,1.948,0,0,0,.731-1.694,1.826,1.826,0,0,0-.688-1.564,3.594,3.594,0,0,0-2.143-.514H1.967ZM20.336.007A5.828,5.828,0,0,1,19.05,4a4.518,4.518,0,0,1-3.573,1.455,4.576,4.576,0,0,1-3.61-1.43A5.875,5.875,0,0,1,10.6-.008a5.8,5.8,0,0,1,1.274-4.008,4.608,4.608,0,0,1,3.62-1.423A4.51,4.51,0,0,1,19.054-3.99,5.822,5.822,0,0,1,20.336.007ZM11.9.007a5.024,5.024,0,0,0,.916,3.262A3.25,3.25,0,0,0,15.477,4.38a3.219,3.219,0,0,0,2.657-1.108,5.094,5.094,0,0,0,.9-3.266,5.054,5.054,0,0,0-.894-3.24,3.2,3.2,0,0,0-2.647-1.1,3.267,3.267,0,0,0-2.676,1.111A4.973,4.973,0,0,0,11.9.007ZM33.274,5.314H32.057L29.921-1.774q-.152-.471-.34-1.188a6.926,6.926,0,0,1-.2-.862,16.489,16.489,0,0,1-.507,2.093L26.808,5.314H25.591L22.774-5.272h1.3L25.75,1.267a24.317,24.317,0,0,1,.507,2.491,17.989,17.989,0,0,1,.579-2.592l1.9-6.437h1.3l1.991,6.5a19.745,19.745,0,0,1,.587,2.534,21.71,21.71,0,0,1,.521-2.505L34.8-5.272h1.3Zm11.874,0h-5.9V-5.272h5.9v1.093h-4.67v3.41h4.388V.318H40.477v3.9h4.67Zm5.06-4.4v4.4H48.976V-5.272h2.9a4.569,4.569,0,0,1,2.878.746,2.7,2.7,0,0,1,.93,2.245A2.812,2.812,0,0,1,53.56.557l2.875,4.757H54.979L52.416.912Zm0-1.057h1.687a2.914,2.914,0,0,0,1.912-.518,1.926,1.926,0,0,0,.608-1.553A1.767,1.767,0,0,0,53.8-3.729a3.354,3.354,0,0,0-1.988-.463h-1.6Zm15.32,5.46h-5.9V-5.272h5.9v1.093h-4.67v3.41h4.388V.318H60.857v3.9h4.67ZM77.807-.08a5.345,5.345,0,0,1-1.423,4.008,5.63,5.63,0,0,1-4.095,1.387H69.356V-5.272H72.6A5.188,5.188,0,0,1,76.438-3.9,5.168,5.168,0,0,1,77.807-.08Zm-1.3.043a4.262,4.262,0,0,0-1.039-3.121,4.164,4.164,0,0,0-3.088-1.05H70.587V4.25h1.5A4.557,4.557,0,0,0,75.4,3.168,4.286,4.286,0,0,0,76.5-.037ZM86.985-5.272h2.99a5.642,5.642,0,0,1,3.048.63,2.224,2.224,0,0,1,.941,1.991A2.3,2.3,0,0,1,93.44-1.1,2.527,2.527,0,0,1,91.909-.3v.072Q94.32.181,94.32,2.3a2.722,2.722,0,0,1-.959,2.216,4.084,4.084,0,0,1-2.683.8H86.985ZM88.216-.739h2.027a3.3,3.3,0,0,0,1.875-.409,1.58,1.58,0,0,0,.572-1.379,1.4,1.4,0,0,0-.637-1.285,3.982,3.982,0,0,0-2.027-.395h-1.81Zm0,1.043V4.265h2.208a3.146,3.146,0,0,0,1.93-.5A1.831,1.831,0,0,0,93,2.215,1.645,1.645,0,0,0,92.34.767,3.541,3.541,0,0,0,90.323.3ZM100.625.021l2.824-5.293h1.332l-3.534,6.481V5.314H100V1.267L96.476-5.272h1.347Zm20.88-.1a5.345,5.345,0,0,1-1.423,4.008,5.63,5.63,0,0,1-4.095,1.387h-2.933V-5.272H116.3A5.188,5.188,0,0,1,120.137-3.9,5.168,5.168,0,0,1,121.505-.08Zm-1.3.043a4.262,4.262,0,0,0-1.039-3.121,4.164,4.164,0,0,0-3.088-1.05h-1.788V4.25h1.5a4.557,4.557,0,0,0,3.309-1.083A4.286,4.286,0,0,0,120.2-.037Zm13.184,5.351h-1.231V.333H126.58V5.314h-1.231V-5.272h1.231v4.5h5.575v-4.5h1.231Zm9.071,0L138.866-4.07h-.058q.1,1.115.1,2.65V5.314h-1.137V-5.272h1.854l3.353,8.732h.058l3.381-8.732h1.839V5.314h-1.231V-1.506q0-1.173.1-2.549h-.058l-3.62,9.37ZM158.618,2.5a2.6,2.6,0,0,1-1.014,2.18,4.4,4.4,0,0,1-2.752.782,6.892,6.892,0,0,1-2.9-.485V3.787a7.625,7.625,0,0,0,1.419.434,7.467,7.467,0,0,0,1.521.159,3.068,3.068,0,0,0,1.854-.467,1.533,1.533,0,0,0,.623-1.3,1.668,1.668,0,0,0-.221-.9,2.052,2.052,0,0,0-.739-.648,10.333,10.333,0,0,0-1.575-.673,5.027,5.027,0,0,1-2.111-1.253,2.766,2.766,0,0,1-.634-1.89,2.35,2.35,0,0,1,.92-1.948,3.822,3.822,0,0,1,2.433-.724,7.17,7.17,0,0,1,2.9.579l-.384,1.072a6.562,6.562,0,0,0-2.549-.55,2.467,2.467,0,0,0-1.528.42,1.384,1.384,0,0,0-.55,1.166,1.787,1.787,0,0,0,.2.9,1.909,1.909,0,0,0,.684.644,8.5,8.5,0,0,0,1.474.648A5.834,5.834,0,0,1,157.991.731,2.507,2.507,0,0,1,158.618,2.5Z" transform="translate(-13762.102 16060.138)"/></g></svg>