<svg xmlns="http://www.w3.org/2000/svg" xmlns:xlink="http://www.w3.org/1999/xlink" viewBox="0 0 160.83 64.09"><defs><style>.cls-1{fill:url(#linear-gradient);}.cls-2{fill:#0c3e9e;}.cls-3{fill:url(#linear-gradient-2);}.cls-4{fill:url(#linear-gradient-3);}</style><linearGradient id="linear-gradient" x1="-146.1" y1="206.67" x2="-146.1" y2="207.65" gradientTransform="matrix(10.31, 0, 0, -9.23, 1615.02, 1929.89)" gradientUnits="userSpaceOnUse"><stop offset="0" stop-color="#f15a29"/><stop offset="1" stop-color="#f7941d"/></linearGradient><linearGradient id="linear-gradient-2" x1="-164.03" y1="234.98" x2="-164.36" y2="234.98" gradientTransform="matrix(66.39, 0, 0, -46.05, 10957.58, 10843.65)" xlink:href="#linear-gradient"/><linearGradient id="linear-gradient-3" x1="-164.53" y1="234.92" x2="-164.41" y2="235.25" gradientTransform="matrix(66.4, 0, 0, -45.69, 10954.26, 10775.72)" gradientUnits="userSpaceOnUse"><stop offset="0" stop-color="#0962cc"/><stop offset="1" stop-color="#05409e"/></linearGradient></defs><g id="Layer_2" data-name="Layer 2"><g id="Layer_1-2" data-name="Layer 1"><g id="Group_3796" data-name="Group 3796"><g id="Group_3794-2" data-name="Group 3794-2"><g id="Group_1-2" data-name="Group 1-2"><path id="Path_1-2" data-name="Path 1-2" class="cls-1" d="M111.25,13.25h-4a1.15,1.15,0,0,0-1,.57l-2,3.48a1.11,1.11,0,0,0,0,1.14l2,3.47a1.13,1.13,0,0,0,1,.57h4a1.12,1.12,0,0,0,1-.57l2-3.47a1.16,1.16,0,0,0,0-1.14l-2-3.48A1.14,1.14,0,0,0,111.25,13.25Z"/><path id="Path_2-2" data-name="Path 2-2" class="cls-2" d="M96.2,46.75V35.36c0-2.74-1.34-4.55-3.93-4.55s-3.88,1.81-3.88,4.55V46.75a3.63,3.63,0,1,1-7.25.41,2.8,2.8,0,0,1,0-.41V18.6a3.63,3.63,0,0,1,7.25-.42v9.16h0a8.18,8.18,0,0,1,6.47-2.69c5.53,0,8.53,3.88,8.53,9.32V46.75a3.63,3.63,0,1,1-7.24.41,2.8,2.8,0,0,1,0-.41Z"/><path id="Path_3-2" data-name="Path 3-2" class="cls-2" d="M105.62,46.75v-18a3.63,3.63,0,1,1,7.24-.41,2.8,2.8,0,0,1,0,.41v18a3.63,3.63,0,1,1-7.24.42A2.94,2.94,0,0,1,105.62,46.75Z"/><path id="Path_4-2" data-name="Path 4-2" class="cls-2" d="M121.35,46.13,114.88,30a4.15,4.15,0,0,1-.36-1.7,3.54,3.54,0,0,1,6.93-.88l4.82,13.09h.1L131,27.45a3.48,3.48,0,0,1,6.83.88,4.15,4.15,0,0,1-.36,1.7L131,46.12c-1.34,3.32-2.43,4.45-4.81,4.45S122.69,49.44,121.35,46.13Z"/><path id="Path_5-2" data-name="Path 5-2" class="cls-2" d="M138.42,43.7a18.24,18.24,0,0,1-.82-6,18.78,18.78,0,0,1,.77-6c1.5-4.55,5.49-7.08,10.82-7.08,5.53,0,9.36,2.58,10.81,7a18.41,18.41,0,0,1,.83,5.85,2.23,2.23,0,0,1-2.06,2.38H145.15a.27.27,0,0,0-.31.23v.08a4.27,4.27,0,0,0,.26,1.45c.67,2.12,2.58,3.26,5.17,3.26A10.23,10.23,0,0,0,155,43.65a5.1,5.1,0,0,1,2.48-.78,2.61,2.61,0,0,1,2.65,2.56.57.57,0,0,1,0,.13,3,3,0,0,1-1.45,2.59,15.05,15.05,0,0,1-9.05,2.69C143.81,50.84,139.87,48.2,138.42,43.7Zm15-8.59a.28.28,0,0,0,.31-.24V34.8a6.26,6.26,0,0,0-.26-1.87,4.08,4.08,0,0,0-4.19-2.74,4,4,0,0,0-4.14,2.74,6,6,0,0,0-.26,1.87.28.28,0,0,0,.23.31h8.31Z"/></g><g id="Group_4-2" data-name="Group 4-2"><g id="Group_2-2" data-name="Group 2-2"><path id="Path_7-2" data-name="Path 7-2" class="cls-3" d="M69.45,26.79,63.82,17c-1.27-2-3.39-2.74-5.23.16-3.11,4.91-6.65,6.7-11.81,6.7H30a3.22,3.22,0,0,1,0-6.44H40.12A1.39,1.39,0,0,0,41.45,16v-.06a1.64,1.64,0,0,0-1.33-1.5H28.18c-2.32,0-2.9.25-4.92,3.73v0L20.76,22.7a3.19,3.19,0,0,1-5.5-3.24l2.65-4.68C20.06,11.07,21.75,8,27.79,8H47.3a4,4,0,0,0,.19-8H23.19a10.94,10.94,0,0,0-9.5,5.47S9,13.09,6.14,18.38s-3,13.48,8.71,13.48H56c11.74,0,11.6,8.58,8.7,13.86l-.17.33,4.86-8.31A11,11,0,0,0,69.45,26.79Z"/></g><g id="Group_3-2" data-name="Group 3-2"><path id="Path_8-2" data-name="Path 8-2" class="cls-4" d="M56.05,31.86H14.86c-11.71,0-11.6-8.18-8.72-13.47h0l-4.67,8a11,11,0,0,0,0,10.95l5.65,9.81c1.27,2,3.37,2.68,5.2-.2,3.11-4.91,6.65-6.7,11.81-6.7H40.91a3.22,3.22,0,0,1,0,6.44H30.78a1.4,1.4,0,0,0-1.33,1.45v0a1.65,1.65,0,0,0,1.33,1.5H42.72c2.32,0,2.9-.25,4.92-3.73v0l2.49-4.52a3.19,3.19,0,0,1,5.5,3.24L53,49.3c-2.15,3.71-3.84,6.76-9.88,6.76H23.6a4,4,0,0,0,0,8H47.72a11,11,0,0,0,9.5-5.47S61.68,51.31,64.58,46l.18-.32C67.65,40.44,67.79,31.86,56.05,31.86Z"/></g></g></g><path id="Path_32573-2" data-name="Path 32573-2" class="cls-2" d="M84.13,60.22a1.5,1.5,0,0,1-.55,1.25,2.52,2.52,0,0,1-1.59.44h-.63V64h-.62V58.66h1.38Q84.13,58.66,84.13,60.22Zm-2.77,1.15h.56a2,2,0,0,0,1.2-.26,1,1,0,0,0,.37-.86.93.93,0,0,0-.35-.79,1.79,1.79,0,0,0-1.08-.26h-.7Zm9.29,0a3,3,0,0,1-.65,2,2.26,2.26,0,0,1-1.81.74,2.31,2.31,0,0,1-1.82-.73,3.49,3.49,0,0,1,0-4.06,2.63,2.63,0,0,1,3.63,0A3,3,0,0,1,90.65,61.33Zm-4.27,0A2.5,2.5,0,0,0,86.85,63a1.6,1.6,0,0,0,1.34.56A1.63,1.63,0,0,0,89.54,63a3.23,3.23,0,0,0,0-3.29,1.9,1.9,0,0,0-2.69,0,2.54,2.54,0,0,0-.47,1.64ZM97.19,64h-.61L95.5,60.43c0-.16-.11-.36-.17-.6a2.16,2.16,0,0,1-.1-.44A9.64,9.64,0,0,1,95,60.45l-1,3.56h-.61l-1.43-5.35h.66L93.39,62a12.76,12.76,0,0,1,.25,1.26,9.72,9.72,0,0,1,.3-1.32l1-3.25h.66l1,3.29c.12.42.22.84.3,1.28A11,11,0,0,1,97.13,62l.84-3.3h.66Zm6,0h-3V58.66h3v.55h-2.37v1.73h2.22v.55h-2.22v2h2.37Zm2.56-2.22V64h-.62V58.66h1.46a2.3,2.3,0,0,1,1.46.38,1.38,1.38,0,0,1,.47,1.13,1.43,1.43,0,0,1-1.08,1.44l1.46,2.4h-.74l-1.3-2.22Zm0-.54h.85a1.46,1.46,0,0,0,1-.26,1,1,0,0,0,.31-.79.89.89,0,0,0-.32-.76,1.67,1.67,0,0,0-1-.23h-.81ZM113.5,64h-3V58.66h3v.55h-2.36v1.73h2.22v.55h-2.22v2h2.36Zm6.21-2.72a2.68,2.68,0,0,1-.71,2,2.82,2.82,0,0,1-2.07.7h-1.49V58.66h1.64a2.64,2.64,0,0,1,1.94.69,2.58,2.58,0,0,1,.69,1.94Zm-.66,0a2.17,2.17,0,0,0-.53-1.58A2.11,2.11,0,0,0,117,59.2h-.9v4.28h.76a2.34,2.34,0,0,0,1.68-.55,2.19,2.19,0,0,0,.56-1.62Zm5.3-2.65h1.51a2.82,2.82,0,0,1,1.54.32,1.29,1.29,0,0,1,.21,1.79,1.26,1.26,0,0,1-.77.4v0c.81.14,1.22.57,1.22,1.28a1.36,1.36,0,0,1-.48,1.12,2,2,0,0,1-1.36.4h-1.86ZM125,61h1a1.65,1.65,0,0,0,1-.2.85.85,0,0,0,.29-.7.71.71,0,0,0-.33-.65,1.89,1.89,0,0,0-1-.2H125Zm0,.53v2h1.13a1.62,1.62,0,0,0,1-.25.91.91,0,0,0,.32-.79.83.83,0,0,0-.33-.73,1.75,1.75,0,0,0-1-.23Zm6.28-.14,1.43-2.68h.67l-1.78,3.28V64h-.63V62l-1.78-3.31h.68Zm10.56-.05a2.68,2.68,0,0,1-.71,2A2.82,2.82,0,0,1,139,64h-1.49V58.66h1.64a2.41,2.41,0,0,1,2.64,2.63Zm-.66,0a2.16,2.16,0,0,0-.53-1.58,2.11,2.11,0,0,0-1.56-.53h-.9v4.28h.76a2.34,2.34,0,0,0,1.68-.55,2.19,2.19,0,0,0,.56-1.62Zm6.67,2.7h-.62V61.49h-2.82V64h-.62V58.66h.62v2.28h2.82V58.66h.62Zm4.59,0-1.81-4.74h0c0,.37.05.82.05,1.34V64h-.57V58.66H151l1.7,4.42h0l1.71-4.42h.93V64h-.62V60.56c0-.39,0-.82.05-1.28h0L152.91,64Zm8.17-1.42a1.31,1.31,0,0,1-.51,1.1,2.24,2.24,0,0,1-1.39.4,3.53,3.53,0,0,1-1.47-.25v-.6a4.25,4.25,0,0,0,1.49.31,1.56,1.56,0,0,0,.94-.24.9.9,0,0,0,.2-1.11,1,1,0,0,0-.37-.33,5.05,5.05,0,0,0-.8-.34,2.56,2.56,0,0,1-1.07-.64,1.37,1.37,0,0,1-.32-1,1.22,1.22,0,0,1,.46-1,1.89,1.89,0,0,1,1.23-.36,3.51,3.51,0,0,1,1.47.29l-.19.54a3.4,3.4,0,0,0-1.29-.28,1.26,1.26,0,0,0-.77.22.68.68,0,0,0-.28.59.9.9,0,0,0,.1.45,1,1,0,0,0,.35.33,4.5,4.5,0,0,0,.74.33,2.88,2.88,0,0,1,1.16.64A1.25,1.25,0,0,1,160.58,62.59Z"/></g></g></g></svg>